<?xml version="1.0" encoding="UTF-8" standalone="no"?>
<!-- Created with Inkscape (http://www.inkscape.org/) -->

<svg
   width="512"
   height="512"
   viewBox="0 0 135.46666 135.46667"
   version="1.1"
   id="svg1"
   inkscape:version="1.3.2 (091e20ef0f, 2023-11-25, custom)"
   sodipodi:docname="13d.svg"
   xmlns:inkscape="http://www.inkscape.org/namespaces/inkscape"
   xmlns:sodipodi="http://sodipodi.sourceforge.net/DTD/sodipodi-0.dtd"
   xmlns="http://www.w3.org/2000/svg"
   xmlns:svg="http://www.w3.org/2000/svg">
  <sodipodi:namedview
     id="namedview1"
     pagecolor="#ffffff"
     bordercolor="#000000"
     borderopacity="0.25"
     inkscape:showpageshadow="2"
     inkscape:pageopacity="0.0"
     inkscape:pagecheckerboard="0"
     inkscape:deskcolor="#d1d1d1"
     inkscape:document-units="mm"
     inkscape:zoom="1"
     inkscape:cx="175.5"
     inkscape:cy="286"
     inkscape:window-width="1920"
     inkscape:window-height="1020"
     inkscape:window-x="0"
     inkscape:window-y="0"
     inkscape:window-maximized="1"
     inkscape:current-layer="layer1" />
  <defs
     id="defs1" />
  <g
     inkscape:label="Layer 1"
     inkscape:groupmode="layer"
     id="layer1">
    <ellipse
       style="fill:#868686;fill-opacity:1;stroke-width:0.414884"
       id="path2-0"
       cx="35.284885"
       cy="63.560406"
       rx="27.082808"
       ry="28.949654" />
    <ellipse
       style="fill:#868686;fill-opacity:1;stroke-width:0.414884"
       id="circle3-9"
       cx="58.871227"
       cy="69.298187"
       rx="27.082808"
       ry="28.949654" />
    <ellipse
       style="fill:#868686;fill-opacity:1;stroke-width:0.414884"
       id="circle4-3"
       cx="59.627583"
       cy="48.172756"
       rx="27.082808"
       ry="28.949654" />
    <ellipse
       style="fill:#868686;fill-opacity:1;stroke-width:0.414884"
       id="circle5-6"
       cx="81.318245"
       cy="67.73333"
       rx="27.082808"
       ry="28.949654" />
    <ellipse
       style="fill:#868686;fill-opacity:1;stroke-width:0.414884"
       id="circle6-0"
       cx="103.3771"
       cy="69.298187"
       rx="27.082808"
       ry="28.949654" />
    <ellipse
       style="fill:#868686;fill-opacity:1;stroke-width:0.414884"
       id="circle7-6"
       cx="88.207878"
       cy="53.936947"
       rx="27.082808"
       ry="28.949654" />
    <rect
       style="fill:#868686;fill-opacity:1;stroke-width:0.414884"
       id="rect7-2"
       width="103.93943"
       height="49.031849"
       x="22.028868"
       y="49.737614"
       ry="24.515924" />
    <ellipse
       style="fill:#ececec;stroke-width:0.414884"
       id="path2"
       cx="32.544773"
       cy="77.122406"
       rx="27.082808"
       ry="28.949654" />
    <ellipse
       style="fill:#ececec;stroke-width:0.414884"
       id="circle3"
       cx="48.193611"
       cy="80.773727"
       rx="27.082808"
       ry="28.949654" />
    <ellipse
       style="fill:#ececec;stroke-width:0.414884"
       id="circle4"
       cx="56.001263"
       cy="67.73333"
       rx="27.082808"
       ry="28.949654" />
    <ellipse
       style="fill:#ececec;stroke-width:0.414884"
       id="circle5"
       cx="70.640625"
       cy="79.20887"
       rx="27.082808"
       ry="28.949654" />
    <ellipse
       style="fill:#ececec;stroke-width:0.414884"
       id="circle6"
       cx="94.551559"
       cy="77.122406"
       rx="27.082808"
       ry="28.949654" />
    <ellipse
       style="fill:#ececec;stroke-width:0.414884"
       id="circle7"
       cx="74.056465"
       cy="63.560406"
       rx="27.082808"
       ry="28.949654" />
    <rect
       style="fill:#ececec;stroke-width:0.414884"
       id="rect7"
       width="103.93943"
       height="49.031849"
       x="11.35125"
       y="61.213154"
       ry="24.515924" />
    <path
       id="rect6"
       style="fill:#7ccbff;fill-opacity:1;stroke-width:0.264582"
       d="m 62.007781,78.406186 c -0.244159,0 -0.44072,0.204417 -0.44072,0.458345 v 1.597928 l -0.93429,-1.165273 c -0.158841,-0.19811 -0.440074,-0.234642 -0.630565,-0.08191 -0.01559,0.01247 -0.02965,0.02613 -0.04301,0.04027 -0.166725,0.15673 -0.183124,0.421855 -0.03175,0.610665 l 1.639612,2.04495 v 2.496732 a 1.8199519,1.8199519 0 0 0 -0.539699,0.226037 l -1.611294,-1.724224 -0.196163,-2.585485 c -0.01921,-0.253197 -0.230678,-0.442159 -0.474136,-0.423688 -0.243457,0.01846 -0.423993,0.237185 -0.404781,0.490381 l 0.113004,1.48929 -1.09103,-1.167489 c -0.173373,-0.185521 -0.456559,-0.200668 -0.634947,-0.03393 -0.178388,0.166708 -0.182427,0.450269 -0.0091,0.635796 l 1.118076,1.196433 -1.506132,-0.217501 c -0.251318,-0.0363 -0.481735,0.12904 -0.516632,0.370685 -0.03489,0.241658 0.13933,0.465416 0.390647,0.501711 l 2.594193,0.374607 1.621082,1.734689 a 1.8199519,1.8199519 0 0 0 -0.181204,0.446988 h -2.434379 l -2.022979,-1.621974 c -0.198111,-0.158834 -0.480555,-0.133353 -0.633285,0.05713 -0.152729,0.190481 -0.116199,0.47173 0.08191,0.630564 l 1.165282,0.934283 -1.597927,1.4e-5 c -0.25392,0 -0.458345,0.196563 -0.458348,0.440723 6e-6,0.244153 0.204428,0.440709 0.458348,0.440709 l 1.637539,-7e-6 -1.187247,0.951925 c -0.198109,0.158841 -0.234643,0.440076 -0.08191,0.630564 0.152733,0.190495 0.435176,0.215961 0.633285,0.05713 l 2.044945,-1.639623 h 2.390928 a 1.8199519,1.8199519 0 0 0 0.187634,0.469382 l -1.626246,1.789774 -2.560864,0.406464 c -0.250784,0.03978 -0.421864,0.265975 -0.383588,0.507119 0.03827,0.241135 0.270984,0.40323 0.521769,0.363424 l 1.47511,-0.23414 -1.074581,1.18265 c -0.170759,0.187925 -0.162755,0.471417 0.01795,0.635608 0.180704,0.164193 0.463652,0.145067 0.634412,-0.04285 l 1.101222,-1.211957 -0.09389,1.518847 c -0.01566,0.253447 0.167906,0.469611 0.4116,0.484675 0.243693,0.01505 0.452494,-0.176838 0.46816,-0.430279 l 0.161706,-2.616102 1.557194,-1.71378 a 1.8199519,1.8199519 0 0 0 0.534321,0.223104 v 2.26749 l -1.639614,2.044952 c -0.151374,0.188802 -0.134985,0.453931 0.03173,0.610649 0.01337,0.01416 0.02744,0.02777 0.04303,0.0403 0.190488,0.152727 0.471723,0.116201 0.630563,-0.08191 l 0.934291,-1.165274 v 1.597928 c 0,0.190445 0.110561,0.353042 0.268847,0.422436 h 9e-6 c 0.05276,0.02313 0.110827,0.03589 0.171863,0.03589 0.01526,0 0.03033,-6.96e-4 0.04518,-0.0023 0.222776,-0.02344 0.395538,-0.217937 0.395538,-0.455993 v -1.597923 l 0.93429,1.165269 c 0.15884,0.19811 0.440075,0.234645 0.630565,0.08191 0.01559,-0.01245 0.02966,-0.02615 0.04303,-0.0403 0.166714,-0.156727 0.183104,-0.421852 0.03173,-0.610653 l -1.639614,-2.044952 v -2.27133 a 1.8199519,1.8199519 0 0 0 0.528476,-0.225709 l 1.563039,1.720225 0.161705,2.616102 c 0.01567,0.25344 0.224467,0.445343 0.468162,0.430279 0.243692,-0.01505 0.427264,-0.231235 0.411598,-0.484675 l -0.09389,-1.518847 1.101222,1.211957 c 0.17076,0.187931 0.453708,0.207056 0.634411,0.04285 0.180704,-0.164193 0.188708,-0.447684 0.01795,-0.635609 l -1.074581,-1.182651 1.475111,0.234141 c 0.250784,0.03978 0.483495,-0.122289 0.521769,-0.363425 0.03827,-0.241142 -0.132804,-0.467319 -0.383589,-0.507125 L 65.21897,88.862816 63.581716,87.060923 a 1.8199519,1.8199519 0 0 0 0.181013,-0.457264 h 2.408556 l 2.044947,1.639623 c 0.19811,0.158834 0.480551,0.133367 0.633284,-0.05713 0.152732,-0.190488 0.116198,-0.471722 -0.08191,-0.630563 l -1.187247,-0.951924 1.637539,6e-6 c 0.253921,0 0.458343,-0.196557 0.458348,-0.44071 2e-6,-0.244159 -0.204424,-0.440723 -0.458348,-0.440723 l -1.597926,-2.1e-5 1.165281,-0.934276 c 0.19811,-0.158841 0.234641,-0.440082 0.08191,-0.630563 -0.15273,-0.190495 -0.435175,-0.215976 -0.633285,-0.05713 l -2.022979,1.621974 h -2.448553 a 1.8199519,1.8199519 0 0 0 -0.175212,-0.438191 l 1.629318,-1.74351 2.594193,-0.374607 c 0.251317,-0.0363 0.425542,-0.260053 0.390647,-0.501712 -0.03489,-0.241644 -0.265313,-0.406979 -0.516632,-0.370684 l -1.506131,0.217501 1.118076,-1.196433 c 0.173371,-0.185527 0.169333,-0.469089 -0.0091,-0.635796 -0.178387,-0.166708 -0.461573,-0.151553 -0.634945,0.03393 l -1.09103,1.16749 0.113003,-1.489289 c 0.01921,-0.253204 -0.161324,-0.471904 -0.404782,-0.490382 -0.243457,-0.01847 -0.454923,0.17049 -0.474135,0.423687 l -0.196162,2.585486 -1.617578,1.730941 a 1.8199519,1.8199519 0 0 0 -0.533417,-0.232322 v -2.497164 l 1.639614,-2.044951 c 0.151378,-0.188809 0.13498,-0.453941 -0.03175,-0.610664 -0.01337,-0.01414 -0.02742,-0.02773 -0.04301,-0.04027 -0.19049,-0.15273 -0.471725,-0.116199 -0.630565,0.08191 l -0.93429,1.165274 v -1.597929 c 0,-0.253929 -0.196562,-0.458352 -0.44072,-0.458352 z" />
    <path
       id="rect6-9"
       style="fill:#7ccbff;fill-opacity:1;stroke-width:0.264582"
       d="m 34.186247,59.678078 c -0.234057,-0.18084 -0.57389,-0.130467 -0.761964,0.112955 l -1.183529,1.531814 -0.03255,-1.809055 c -0.0055,-0.307561 -0.248075,-0.550881 -0.543806,-0.545559 -0.02418,4.09e-4 -0.04777,0.0031 -0.07106,0.0067 -0.275911,0.02676 -0.488,0.268768 -0.48273,0.561885 l 0.05715,3.174743 -1.849239,2.39343 a 2.2047311,2.2047311 0 0 0 -0.684788,-0.18305 l -0.267556,-2.846311 1.726929,-2.623802 c 0.169122,-0.256947 0.106358,-0.594719 -0.140707,-0.757333 -0.24706,-0.16262 -0.582125,-0.08666 -0.751242,0.170284 l -0.994736,1.511369 -0.181171,-1.927271 c -0.02879,-0.306255 -0.289041,-0.530522 -0.583541,-0.502813 -0.294482,0.02768 -0.508377,0.296523 -0.479594,0.602782 l 0.18566,1.975049 -1.28272,-1.324041 c -0.214032,-0.220942 -0.557378,-0.233102 -0.769809,-0.02731 -0.212438,0.205815 -0.211153,0.549358 0.0029,0.770292 l 2.209399,2.280534 0.269188,2.863592 a 2.2047311,2.2047311 0 0 0 -0.504774,0.294284 l -2.333658,-1.803058 -0.73794,-3.053214 c -0.07227,-0.298995 -0.361902,-0.483764 -0.649399,-0.414281 -0.287492,0.06947 -0.460784,0.366147 -0.388514,0.665142 l 0.425078,1.75871 -1.531822,-1.183513 c -0.243414,-0.18807 -0.584968,-0.151049 -0.765811,0.08301 -0.18083,0.234055 -0.130448,0.573888 0.112966,0.761957 l 1.569791,1.212859 -1.843181,0.03319 c -0.30756,0.0055 -0.550884,0.248076 -0.545559,0.543806 0.0053,0.295737 0.257215,0.529345 0.564765,0.52382 l 3.174746,-0.05716 2.292004,1.770874 a 2.2047311,2.2047311 0 0 0 -0.167784,0.588934 l -2.884602,0.511218 -2.755961,-1.507093 c -0.269874,-0.14761 -0.601407,-0.05749 -0.743321,0.202025 -0.14191,0.259508 -0.03889,0.587256 0.231005,0.734844 l 1.587496,0.868108 -1.906067,0.337816 c -0.302883,0.05367 -0.505182,0.331364 -0.453568,0.622601 0.05162,0.29124 0.337023,0.482475 0.639903,0.428805 l 1.953312,-0.346176 -1.214957,1.386466 c -0.202735,0.23136 -0.186865,0.574544 0.03559,0.769479 0.222461,0.194925 0.564751,0.165626 0.767483,-0.06573 l 2.092668,-2.388091 2.7621,-0.489514 a 2.2047311,2.2047311 0 0 0 0.346968,0.609625 l -1.679448,2.173672 -3.086397,0.745939 c -0.284949,0.06888 -0.465611,0.335171 -0.421869,0.608886 0.0023,0.02347 0.0057,0.04694 0.0114,0.0705 0.06949,0.287496 0.366141,0.460781 0.665142,0.388516 l 1.758712,-0.425066 -1.183529,1.531814 c -0.141055,0.182565 -0.155499,0.420323 -0.05516,0.604083 l 1e-5,7e-6 c 0.03344,0.06125 0.07965,0.116492 0.138167,0.1617 0.01463,0.0113 0.02959,0.0218 0.04503,0.03124 0.230918,0.142533 0.540589,0.08404 0.716909,-0.144166 l 1.183525,-1.531809 0.03256,1.809052 c 0.0055,0.30756 0.248074,0.550884 0.543807,0.545557 0.02418,-3.89e-4 0.04779,-0.0031 0.0711,-0.0067 0.275898,-0.02676 0.487978,-0.26878 0.482707,-0.561886 l -0.05715,-3.174745 1.682293,-2.177353 a 2.2047311,2.2047311 0 0 0 0.673784,0.175052 l 0.22426,2.806738 -1.782637,2.627629 c -0.172692,0.254563 -0.114671,0.593173 0.130098,0.759228 0.244759,0.166064 0.580854,0.09479 0.75355,-0.159766 l 1.034954,-1.525542 0.158007,1.977448 c 0.0245,0.306631 0.281576,0.534535 0.576422,0.510966 0.294838,-0.02356 0.512483,-0.289392 0.487976,-0.596018 l -0.154173,-1.929622 1.240657,1.317014 c 0.210943,0.223884 0.554066,0.240879 0.769358,0.03806 0.215296,-0.202817 0.218817,-0.546348 0.0079,-0.770255 L 29.519793,72.0805 29.284877,69.140506 A 2.2047311,2.2047311 0 0 0 29.79708,68.83623 l 2.308902,1.783931 0.745927,3.086402 c 0.07227,0.298995 0.361888,0.483776 0.649398,0.414281 0.287501,-0.06948 0.460779,-0.366141 0.388514,-0.665143 l -0.433069,-1.791889 1.569781,1.212873 c 0.243415,0.18807 0.584962,0.151053 0.765802,-0.083 0.180842,-0.234057 0.130461,-0.573898 -0.112956,-0.76197 l -1.531797,-1.183547 1.809052,-0.03253 c 0.307561,-0.0055 0.550887,-0.248084 0.545559,-0.543805 -0.0053,-0.295734 -0.257204,-0.529358 -0.564766,-0.523821 l -3.140616,0.05652 -2.347297,-1.813596 a 2.2047311,2.2047311 0 0 0 0.156572,-0.549811 l 2.853261,-0.464595 2.764316,1.562317 c 0.267807,0.151343 0.600547,0.06589 0.746083,-0.191615 0.145527,-0.25749 0.0471,-0.586647 -0.220703,-0.737998 l -1.60491,-0.907035 1.95797,-0.318811 c 0.303612,-0.04944 0.509764,-0.324261 0.462228,-0.616199 -0.04753,-0.291936 -0.330225,-0.487154 -0.63381,-0.437751 l -1.910606,0.311098 1.211392,-1.343972 c 0.205951,-0.228502 0.194872,-0.571866 -0.02482,-0.7699 -0.219707,-0.19802 -0.562376,-0.173509 -0.768326,0.05498 l -2.103024,2.33322 -2.832695,0.461242 a 2.2047311,2.2047311 0 0 0 -0.339303,-0.61779 l 1.849561,-2.393844 3.086395,-0.745937 c 0.284959,-0.06888 0.465614,-0.335185 0.421865,-0.608912 -0.0023,-0.02345 -0.0057,-0.04689 -0.0114,-0.07046 -0.06949,-0.2875 -0.366141,-0.46078 -0.665143,-0.388514 l -1.758711,0.425065 1.183528,-1.531814 c 0.188076,-0.243422 0.151056,-0.584974 -0.083,-0.765813 z" />
    <path
       id="rect6-6"
       style="fill:#7ccbff;fill-opacity:1;stroke-width:0.264582"
       d="m 113.67631,88.85338 c -0.22311,-0.220388 -0.58725,-0.211015 -0.81646,0.02103 l -1.44235,1.460219 0.19805,-1.908182 c 0.0337,-0.324411 -0.19035,-0.611648 -0.50229,-0.644025 -0.0255,-0.0027 -0.0507,-0.0029 -0.0756,-0.002 -0.29382,-0.0073 -0.54813,0.220209 -0.58019,0.52941 l -0.34755,3.348698 -2.25366,2.281565 A 2.3376493,2.3376493 0 0 0 107.15905,93.6595 l 0.084,-3.030049 2.15452,-2.539733 c 0.21101,-0.248693 0.1883,-0.612279 -0.0509,-0.815152 -0.23915,-0.202879 -0.60155,-0.165967 -0.81254,0.08275 l -1.24103,1.462947 0.0568,-2.051681 c 0.009,-0.326026 -0.23608,-0.595488 -0.5496,-0.604143 -0.31349,-0.0086 -0.57313,0.246803 -0.58216,0.572835 l -0.0582,2.102548 -1.18001,-1.558252 c -0.19689,-0.260027 -0.55669,-0.316915 -0.80671,-0.127599 -0.25001,0.189343 -0.29278,0.551072 -0.0959,0.811093 l 2.03249,2.683949 -0.0845,3.048446 a 2.3376493,2.3376493 0 0 0 -0.56905,0.244907 l -2.2246,-2.197373 -0.38457,-3.308214 c -0.0377,-0.323968 -0.31878,-0.555634 -0.63028,-0.519421 -0.31151,0.03621 -0.53199,0.326189 -0.49433,0.650157 l 0.22154,1.905595 -1.46024,-1.44234 c -0.23203,-0.229199 -0.596261,-0.234096 -0.816651,-0.01098 -0.220385,0.223112 -0.211005,0.587249 0.0211,0.816449 l 1.496421,1.478103 -1.944176,-0.20177 c -0.32442,-0.03366 -0.61165,0.190359 -0.64403,0.502285 -0.0324,0.311946 0.20274,0.59016 0.52711,0.623868 l 3.348706,0.347532 2.18489,2.158154 a 2.3376493,2.3376493 0 0 0 -0.25222,0.598292 l -3.10163,0.167615 -2.707066,-1.940099 c -0.26506,-0.190038 -0.62558,-0.13774 -0.80827,0.117169 -0.18267,0.254916 -0.11634,0.613082 0.14876,0.803071 l 1.559335,1.117531 -2.049485,0.110771 c -0.32568,0.0176 -0.57425,0.283884 -0.55733,0.59703 0.0169,0.31315 0.29275,0.55108 0.61842,0.53349 l 2.100285,-0.1135 -1.456775,1.3032 c -0.24313,0.21744 -0.27045,0.58072 -0.0614,0.81445 0.20907,0.23375 0.57311,0.24683 0.8162,0.0294 l 2.509166,-2.2447 2.96993,-0.16049 a 2.3376493,2.3376493 0 0 0 0.28689,0.68617 l -2.04672,2.0721 -3.344186,0.38873 c -0.30875,0.0359 -0.53309,0.29297 -0.52221,0.586649 -5.5e-4,0.025 3e-5,0.0502 0.003,0.0756 0.0363,0.3115 0.32618,0.53198 0.65017,0.49432 l 1.905586,-0.22153 -1.442351,1.46022 c -0.17191,0.17403 -0.21764,0.42242 -0.13563,0.62871 h 10e-6 c 0.0273,0.0688 0.0688,0.13284 0.12465,0.18794 0.0139,0.0137 0.0283,0.0267 0.0434,0.0387 0.224731,0.17966 0.558161,0.15787 0.773041,-0.0597 l 1.44235,-1.46021 -0.19804,1.90818 c -0.0337,0.32441 0.19035,0.61164 0.50229,0.64402 0.0255,0.003 0.0507,0.003 0.0757,0.002 0.29382,0.007 0.5481,-0.22022 0.58018,-0.5294 l 0.34755,-3.3487 2.0502,-2.075589 a 2.3376493,2.3376493 0 0 0 0.68666,0.27076 l -0.12441,2.982829 -2.21363,2.53663 c -0.21442,0.24576 -0.19687,0.60957 0.0394,0.81577 0.23631,0.20619 0.59917,0.17435 0.81362,-0.0713 l 1.28519,-1.47269 -0.0876,2.10152 c -0.0136,0.32587 0.22772,0.59875 0.54105,0.61181 0.31335,0.013 0.57656,-0.23877 0.59014,-0.56465 l 0.0855,-2.05069 1.13664,1.54546 c 0.19328,0.26271 0.55221,0.32468 0.80486,0.13886 0.25265,-0.1858 0.30046,-0.54691 0.10721,-0.80965 l -1.97328,-2.68297 0.13029,-3.124469 a 2.3376493,2.3376493 0 0 0 0.57817,-0.25446 l 2.20099,2.174059 0.38873,3.34417 c 0.0376,0.32397 0.31874,0.55564 0.6303,0.51939 0.31152,-0.0363 0.53198,-0.32619 0.49431,-0.65016 l -0.22568,-1.94155 1.49641,1.47812 c 0.23204,0.2292 0.59627,0.2341 0.81665,0.011 0.2204,-0.22311 0.21102,-0.58726 -0.0211,-0.81647 l -1.4602,-1.44237 1.90818,0.19808 c 0.32441,0.0337 0.61166,-0.19036 0.64403,-0.50229 0.0324,-0.311929 -0.20273,-0.590159 -0.52714,-0.623839 l -3.3127,-0.34382 -2.2376,-2.21022 a 2.3376493,2.3376493 0 0 0 0.2354,-0.55856 l 3.06267,-0.12256 2.70876,1.9993 c 0.26243,0.19366 0.6236,0.14646 0.80985,-0.10587 0.18623,-0.2523 0.12491,-0.61138 -0.13752,-0.80507 l -1.57265,-1.16073 2.10166,-0.0841 c 0.32591,-0.0131 0.57816,-0.275826 0.56564,-0.589177 -0.0125,-0.313366 -0.28501,-0.555131 -0.61086,-0.542121 l -2.05083,0.08207 1.44755,-1.258946 c 0.24609,-0.214067 0.27854,-0.576851 0.0727,-0.813489 -0.20582,-0.236633 -0.56962,-0.254836 -0.81572,-0.04081 l -2.51302,2.185606 -3.0406,0.121675 a 2.3376493,2.3376493 0 0 0 -0.27774,-0.693783 l 2.25404,-2.28196 3.34417,-0.38873 c 0.30876,-0.0359 0.53309,-0.292988 0.52223,-0.586665 5.4e-4,-0.025 10e-6,-0.05006 -0.003,-0.07562 -0.0363,-0.311512 -0.32619,-0.531983 -0.65015,-0.49432 l -1.90561,0.221521 1.44236,-1.46022 c 0.2292,-0.232046 0.2341,-0.596278 0.0109,-0.816667 z" />
    <path
       id="rect6-7-6"
       style="fill:#7ccbff;fill-opacity:1;stroke-width:0.264581"
       d="m 87.906707,113.46053 c -0.153701,-0.12982 -0.386137,-0.10558 -0.521129,0.0542 l -0.849573,1.00593 0.03139,-1.2303 c 0.0054,-0.20917 -0.152284,-0.38169 -0.353404,-0.38682 -0.01638,-6e-4 -0.03255,5.9e-4 -0.04849,0.002 -0.188289,0.01 -0.33957,0.16821 -0.344657,0.36755 l -0.05508,2.15907 -1.327438,1.57174 a 1.4996337,1.4996337 0 0 0 -0.45993,-0.14465 l -0.09762,-1.94211 1.251138,-1.73191 c 0.122531,-0.16961 0.08984,-0.401 -0.07321,-0.51881 -0.163073,-0.11784 -0.393017,-0.0761 -0.515541,0.0935 l -0.720673,0.99761 -0.06611,-1.31502 c -0.01051,-0.20896 -0.180724,-0.36907 -0.38167,-0.35895 -0.200948,0.0102 -0.354236,0.18647 -0.343738,0.39544 l 0.06775,1.34763 -0.832502,-0.93769 c -0.138908,-0.15648 -0.371868,-0.17489 -0.522314,-0.0413 -0.150448,0.13358 -0.159739,0.36707 -0.02083,0.52354 l 1.433929,1.61508 0.09822,1.9539 a 1.4996337,1.4996337 0 0 0 -0.351723,0.18505 l -1.532492,-1.29429 -0.411149,-2.09662 c -0.04026,-0.20532 -0.231617,-0.33946 -0.429041,-0.30073 -0.197419,0.0387 -0.323955,0.23517 -0.283688,0.4405 l 0.236837,1.20769 -1.005935,-0.84956 c -0.159848,-0.135 -0.393045,-0.11994 -0.522859,0.0338 -0.129805,0.1537 -0.105619,0.38612 0.05423,0.52112 l 1.030869,0.87063 -1.25351,-0.0319 c -0.209161,-0.005 -0.381686,0.15228 -0.386817,0.3534 -0.0052,0.20112 0.159131,0.36731 0.36829,0.37266 l 2.159076,0.055 1.505136,1.27119 a 1.4996337,1.4996337 0 0 0 -0.131435,0.39524 l -1.975327,0.26208 -1.828222,-1.10566 c -0.179023,-0.10831 -0.406981,-0.0569 -0.511095,0.11529 -0.104113,0.17214 -0.0438,0.39792 0.135241,0.5062 l 1.053099,0.63687 -1.305253,0.17318 c -0.207415,0.0275 -0.353096,0.21023 -0.326637,0.40967 0.02646,0.19944 0.214752,0.33783 0.42216,0.31032 l 1.337601,-0.17745 -0.866629,0.90622 c -0.144611,0.15122 -0.143978,0.38489 0.0014,0.52394 0.145408,0.13904 0.378874,0.12926 0.523484,-0.0219 l 1.492704,-1.56091 1.891451,-0.25095 a 1.4996337,1.4996337 0 0 0 0.21775,0.42453 l -1.205561,1.42744 -2.119411,0.4156 c -0.195674,0.0384 -0.326317,0.21398 -0.304691,0.40128 8.88e-4,0.016 0.0025,0.0321 0.0057,0.0483 0.03872,0.19741 0.23518,0.32395 0.440502,0.28369 l 1.207697,-0.23683 -0.849573,1.00593 c -0.10125,0.11989 -0.1181,0.28102 -0.05535,0.40887 h 7e-6 c 0.0209,0.0427 0.05068,0.0816 0.08911,0.11397 0.0096,0.008 0.01946,0.0157 0.02967,0.0226 0.152701,0.10369 0.364863,0.0731 0.491437,-0.0768 l 0.849569,-1.00592 -0.03139,1.2303 c -0.0054,0.20917 0.152282,0.38168 0.353404,0.38682 0.01638,5.9e-4 0.03258,-5.9e-4 0.04852,-0.002 0.188279,-0.0101 0.339552,-0.16822 0.344641,-0.36756 l 0.05507,-2.15907 1.2076,-1.42984 a 1.4996337,1.4996337 0 0 0 0.452698,0.13884 l 0.06937,1.91395 -1.28911,1.73287 c -0.124879,0.16787 -0.09545,0.39969 0.06595,0.51977 0.161416,0.12007 0.391909,0.0816 0.516795,-0.0863 l 0.748425,-1.00607 0.04888,1.34845 c 0.0076,0.20908 0.175534,0.37156 0.376592,0.36427 0.201044,-0.007 0.356815,-0.1815 0.349231,-0.39059 l -0.04769,-1.31583 0.804129,0.93167 c 0.136719,0.15838 0.369385,0.18009 0.521677,0.0487 0.152303,-0.13145 0.164862,-0.36479 0.02815,-0.52319 l -1.396026,-1.61741 -0.07267,-2.00481 a 1.4996337,1.4996337 0 0 0 0.357067,-0.19162 l 1.516233,1.28057 0.415596,2.1194 c 0.04027,0.20533 0.23161,0.33946 0.429042,0.30073 0.197425,-0.0387 0.323951,-0.23517 0.283686,-0.4405 l -0.241284,-1.23047 1.030859,0.87063 c 0.159848,0.135 0.393043,0.11995 0.522853,-0.0338 0.129814,-0.15371 0.105629,-0.38612 -0.05422,-0.52113 l -1.005915,-0.84959 1.230296,0.0314 c 0.209163,0.005 0.381692,-0.15229 0.386817,-0.3534 0.0052,-0.20112 -0.159122,-0.36734 -0.36829,-0.37266 l -2.135863,-0.0545 -1.541447,-1.30185 a 1.4996337,1.4996337 0 0 0 0.122664,-0.369 l 1.952662,-0.23131 1.832264,1.14344 c 0.177517,0.11074 0.406157,0.0625 0.512666,-0.10814 0.106504,-0.17067 0.04935,-0.39727 -0.128148,-0.50803 l -1.06378,-0.66385 1.339961,-0.15873 c 0.207786,-0.0246 0.355999,-0.20527 0.332332,-0.40506 -0.02367,-0.19979 -0.209993,-0.34081 -0.417755,-0.31622 l -1.307546,0.15489 0.862952,-0.87746 c 0.146711,-0.14919 0.149344,-0.38284 0.0059,-0.52392 -0.143445,-0.14106 -0.377022,-0.13457 -0.52374,0.0146 l -1.498116,1.52333 -1.938589,0.22964 a 1.4996337,1.4996337 0 0 0 -0.212278,-0.42985 l 1.327668,-1.57202 2.119412,-0.4156 c 0.195682,-0.0384 0.326321,-0.214 0.304689,-0.40131 -8.88e-4,-0.016 -0.0025,-0.0321 -0.0057,-0.0482 -0.03872,-0.19742 -0.23518,-0.32395 -0.440504,-0.28369 l -1.207696,0.23682 0.849572,-1.00592 c 0.135007,-0.15985 0.119952,-0.39304 -0.03375,-0.52286 z" />
  </g>
</svg>
